<svg width="26" height="23" viewBox="0 0 26 23" fill="none" xmlns="http://www.w3.org/2000/svg">
<path d="M4.875 8.3428H18.8617L17.3371 9.86737C17.1613 10.0432 17.0625 10.2817 17.0625 10.5303C17.0625 10.7789 17.1613 11.0174 17.3371 11.1932C17.5129 11.369 17.7514 11.4678 18 11.4678C18.2486 11.4678 18.4871 11.369 18.6629 11.1932L21.7879 8.06823C21.875 7.98117 21.944 7.87782 21.9912 7.76407C22.0383 7.65033 22.0625 7.52842 22.0625 7.4053C22.0625 7.28218 22.0383 7.16027 21.9912 7.04652C21.944 6.93277 21.875 6.82942 21.7879 6.74237L18.6629 3.61737C18.4871 3.44155 18.2486 3.34277 18 3.34277C17.7514 3.34277 17.5129 3.44155 17.3371 3.61737C17.1613 3.79319 17.0625 4.03165 17.0625 4.2803C17.0625 4.52894 17.1613 4.76741 17.3371 4.94323L18.8617 6.4678H4.875C4.62636 6.4678 4.3879 6.56657 4.21209 6.74238C4.03627 6.9182 3.9375 7.15666 3.9375 7.4053C3.9375 7.65394 4.03627 7.8924 4.21209 8.06821C4.3879 8.24403 4.62636 8.3428 4.875 8.3428Z" fill="#969CBA"/>
<path d="M21.125 14.5928H7.13835L8.66296 13.0682C8.83878 12.8924 8.93756 12.6539 8.93756 12.4053C8.93756 12.1567 8.83878 11.9182 8.66296 11.7424C8.48714 11.5665 8.24868 11.4678 8.00003 11.4678C7.75139 11.4678 7.51292 11.5665 7.3371 11.7424L4.2121 14.8674C4.12504 14.9544 4.05598 15.0578 4.00887 15.1715C3.96175 15.2853 3.9375 15.4072 3.9375 15.5303C3.9375 15.6534 3.96175 15.7753 4.00887 15.8891C4.05598 16.0028 4.12504 16.1062 4.2121 16.1932L7.3371 19.3182C7.51292 19.4941 7.75139 19.5928 8.00003 19.5928C8.24868 19.5928 8.48714 19.4941 8.66296 19.3182C8.83878 19.1424 8.93756 18.9039 8.93756 18.6553C8.93756 18.4067 8.83878 18.1682 8.66296 17.9924L7.13835 16.4678H21.125C21.3737 16.4678 21.6121 16.369 21.7879 16.1932C21.9638 16.0174 22.0625 15.7789 22.0625 15.5303C22.0625 15.2817 21.9638 15.0432 21.7879 14.8674C21.6121 14.6916 21.3737 14.5928 21.125 14.5928Z" fill="#969CBA"/>
</svg>
