<svg width="18" height="18" viewBox="0 0 18 18" fill="none" xmlns="http://www.w3.org/2000/svg">
<path d="M14.941 2.58925C13.3312 0.979363 11.1991 0.0927734 8.9375 0.0927734C6.67594 0.0927734 4.54383 0.979363 2.93398 2.58925C1.32409 4.1991 0.4375 6.33121 0.4375 8.59277C0.4375 10.8543 1.32409 12.9864 2.93398 14.5963C4.54383 16.2062 6.67594 17.0928 8.9375 17.0928C11.1991 17.0928 13.3312 16.2062 14.941 14.5963C16.5509 12.9864 17.4375 10.8543 17.4375 8.59277C17.4375 6.33121 16.5509 4.1991 14.941 2.58925ZM8.9375 16.0967C4.79983 16.0967 1.43359 12.7304 1.43359 8.59277C1.43359 4.4551 4.79983 1.08887 8.9375 1.08887C13.0752 1.08887 16.4414 4.4551 16.4414 8.59277C16.4414 12.7304 13.0752 16.0967 8.9375 16.0967Z" fill="#969CBA"/>
<path d="M8.9375 2.11816C5.3674 2.11816 2.46289 5.02267 2.46289 8.59277C2.46289 12.1629 5.3674 15.0674 8.9375 15.0674C12.5076 15.0674 15.4121 12.1629 15.4121 8.59277C15.4121 5.02267 12.5076 2.11816 8.9375 2.11816ZM8.9375 14.0713C5.91665 14.0713 3.45898 11.6136 3.45898 8.59277C3.45898 5.57192 5.91665 3.11426 8.9375 3.11426C11.9584 3.11426 14.416 5.57192 14.416 8.59277C14.416 11.6136 11.9584 14.0713 8.9375 14.0713Z" fill="#969CBA"/>
<path d="M10.4316 7.09354C10.4316 7.36859 10.6546 7.59159 10.9297 7.59159C11.2047 7.59159 11.4277 7.36859 11.4277 7.09354C11.4277 6.54197 11.1425 6.01165 10.645 5.63858C10.3052 5.38374 9.88718 5.21351 9.43555 5.1411V4.60327C9.43555 4.32822 9.21255 4.10522 8.9375 4.10522C8.66245 4.10522 8.43945 4.32822 8.43945 4.60327V5.1411C7.98779 5.21351 7.56973 5.38374 7.23 5.63858C6.73255 6.01165 6.44727 6.54197 6.44727 7.09354C6.44727 7.64511 6.73255 8.1754 7.23 8.5485C7.56976 8.80333 7.98782 8.97357 8.43945 9.04598V11.0185C7.8657 10.8783 7.44336 10.506 7.44336 10.0818C7.44336 9.80676 7.22037 9.58377 6.94531 9.58377C6.67026 9.58377 6.44727 9.80676 6.44727 10.0818C6.44727 10.6334 6.73255 11.1637 7.23 11.5368C7.56976 11.7916 7.98782 11.9618 8.43945 12.0343V12.5771C8.43945 12.8522 8.66245 13.0751 8.9375 13.0751C9.21255 13.0751 9.43555 12.8522 9.43555 12.5771V12.0343C9.88721 11.9618 10.3053 11.7916 10.645 11.5368C11.1425 11.1637 11.4277 10.6334 11.4277 10.0818C11.4277 9.53025 11.1425 8.99993 10.645 8.62686C10.3052 8.37203 9.88718 8.20179 9.43555 8.12938V6.15681C10.0093 6.29706 10.4316 6.66937 10.4316 7.09354ZM7.44336 7.09354C7.44336 6.66937 7.8657 6.29703 8.43945 6.15681V8.03023C7.8657 7.89005 7.44336 7.51771 7.44336 7.09354ZM10.4316 10.0818C10.4316 10.506 10.0093 10.8783 9.43555 11.0185V9.14513C10.0093 9.28534 10.4316 9.65765 10.4316 10.0818Z" fill="#969CBA"/>
</svg>
