<svg width="17" height="17" viewBox="0 0 17 17" fill="none" xmlns="http://www.w3.org/2000/svg">
<path d="M16.6747 14.8181L13.6534 11.8057C14.6282 10.5639 15.1571 9.03034 15.1551 7.4516C15.1551 6.0456 14.7382 4.67119 13.9571 3.50215C13.176 2.33311 12.0657 1.42195 10.7668 0.883903C9.46778 0.345854 8.03844 0.205075 6.65946 0.479371C5.28049 0.753666 4.01381 1.43072 3.01963 2.4249C2.02544 3.41909 1.34839 4.68576 1.0741 6.06473C0.799802 7.44371 0.94058 8.87306 1.47863 10.172C2.01668 11.471 2.92783 12.5812 4.09687 13.3624C5.26591 14.1435 6.64033 14.5604 8.04632 14.5604C9.62506 14.5624 11.1586 14.0335 12.4005 13.0587L15.4128 16.0799C15.4954 16.1632 15.5937 16.2293 15.702 16.2744C15.8103 16.3195 15.9264 16.3428 16.0437 16.3428C16.1611 16.3428 16.2772 16.3195 16.3855 16.2744C16.4938 16.2293 16.592 16.1632 16.6747 16.0799C16.7579 15.9973 16.824 15.899 16.8692 15.7908C16.9143 15.6825 16.9375 15.5663 16.9375 15.449C16.9375 15.3317 16.9143 15.2156 16.8692 15.1073C16.824 14.999 16.7579 14.9007 16.6747 14.8181ZM2.71471 7.4516C2.71471 6.3971 3.0274 5.36629 3.61325 4.48951C4.19909 3.61273 5.03178 2.92936 6.006 2.52583C6.98023 2.12229 8.05224 2.01671 9.08647 2.22243C10.1207 2.42815 11.0707 2.93594 11.8163 3.68158C12.562 4.42722 13.0698 5.37722 13.2755 6.41145C13.4812 7.44568 13.3756 8.51769 12.9721 9.49192C12.5686 10.4661 11.8852 11.2988 11.0084 11.8847C10.1316 12.4705 9.10082 12.7832 8.04632 12.7832C6.63229 12.7832 5.27617 12.2215 4.2763 11.2216C3.27643 10.2217 2.71471 8.86563 2.71471 7.4516Z" fill="#6A2FE4"/>
</svg>
