<svg width="19" height="15" viewBox="0 0 19 15" fill="none" xmlns="http://www.w3.org/2000/svg">
<path d="M16.3414 0.0927734H3.53365C2.10212 0.0927734 0.9375 1.25739 0.9375 2.68892V12.3812C0.9375 13.8127 2.10212 14.9774 3.53365 14.9774H16.3414C17.7729 14.9774 18.9375 13.8127 18.9375 12.3812V2.68892C18.9375 1.25739 17.7729 0.0927734 16.3414 0.0927734ZM17.8991 9.09277H14.0914C13.2324 9.09277 12.5336 8.39401 12.5336 7.53507C12.5336 6.67613 13.2324 5.97737 14.0914 5.97737H17.8991V9.09277ZM17.8991 4.93892H14.0914C12.6598 4.93892 11.4952 6.10354 11.4952 7.53507C11.4952 8.9666 12.6598 10.1312 14.0914 10.1312H17.8991V12.3812C17.8991 13.2401 17.2003 13.9389 16.3414 13.9389H3.53365C2.67475 13.9389 1.97595 13.2402 1.97595 12.3812V2.68892C1.97595 1.83002 2.67471 1.13122 3.53365 1.13122H16.3414C17.2003 1.13122 17.8991 1.82998 17.8991 2.68892V4.93892Z" fill="#969CBA"/>
</svg>
